/* XPM */
static char *_ab49dcda20e4975dd991f9b05e6df3cEn5BK2jNGBQkPxOl[] = {
/* columns rows colors chars-per-pixel */
"64 64 5 1 ",
"  c None",
". c #4CAF50",
"X c #FFEB3B",
"o c #2196F3",
"O c white",
/* pixels */
"                                                                ",
"                                                                ",
"                                                                ",
"                                                                ",
"                                                                ",
"                                                                ",
"                                                                ",
"                                                                ",
"                                                                ",
"                                                                ",
"                                                                ",
"                                                                ",
"                           ooooooooo                            ",
"                       oooooooooooo.O...                        ",
"                      XooooooOooooOo......                      ",
"                    oXXOooooooooooooXX..O..                     ",
"                    .XX...oooOoooooooX..oooo                    ",
"                  ..XXX........ooooo..ooooooo                   ",
"                  .XOXXO.......oooo.oooo.ooooo                  ",
"                 XXXXX....O..o.oooooooOo.Oooooo                 ",
"                XOXXX....O..oooOooooo.o..ooooooo                ",
"                .......OO.ooooooooo.O.X.oOoOoooo                ",
"               ...O....oooOoOOooooO.XXXX.oooooooo               ",
"              ..OO...XXooOooooOOoOo...XOX.O.ooooo               ",
"              ...O...XXOooooooooooooX..XOO.ooooooo              ",
"              .O...OXXXXXXOoooooooooX..X...ooooooo              ",
"             .O...XOXOXXXXoooooooOXXXOO...oooooooo              ",
"             ..OoooooXXXXoooooOOoooOo..oooO....ooo              ",
"             ..ooooooXXXOoooOOoo.oooooOoooo..X..ooo             ",
"             ..oooo.oOXOooOoooooOooOooo.OO..OXX.ooo             ",
"            oooooo..oOOooooXoOoooOoooOOO..O.OX..ooo             ",
"            oo.ooooOooooooXOo.oOooOooooOo....X.oooo             ",
"            oooo.o.oooooXOXoO.OoOoooo.ooo..ooXooo.o             ",
"             oo..oooooXXXXXooooooooooO.ooo.ooXOOooo             ",
"             ....ooo..XXXOXoooXXoooooo.o.oooooooooo             ",
"             ...ooo...XXXXXXXXXooooooOoOXXXooooooo              ",
"             ...X.....XXXXOXXXXooooXOooo..XXXooooo              ",
"              .OXOXO.XXXXXXXXXXXXXXXXoooo..XOooooo              ",
"              OOOOO.XXXOXXXOXXXXXXXXooooooOXooooo               ",
"               OOX..XXXXXXXXXXOOXXooooooooooooooo               ",
"               .O...XXXXOXXXOOXXXOoOooOOooooooooo               ",
"               ....XXX.XXXOXXXXXOOooooOoXXXooooo                ",
"                ...X..XOXXXXXXXOoooOOooOoXXoooo                 ",
"                ...O...XXOXOXOXoooOoooOoXXOoooo                 ",
"                  .....O..OXOXooooooooXXXXXooo                  ",
"                   .......XXXXXooooooo..OOooo                   ",
"                   o..........XooooOo..OXXoo                    ",
"                     ......O....oooo....XXo                     ",
"                      .................Xo                       ",
"                        ...............                         ",
"                             ......                             ",
"                                                                ",
"                                                                ",
"                                                                ",
"                                                                ",
"                                                                ",
"                                                                ",
"                                                                ",
"                                                                ",
"                                                                ",
"                                                                ",
"                                                                ",
"                                                                ",
"                                                                "
};
