/* XPM */
static char *pixil_frame_0__5_1693793351[] = {
/* columns rows colors chars-per-pixel */
"64 64 13 1 ",
"  c None",
". c black",
"X c #1B5E20",
"o c #F44336",
"O c #E91E63",
"+ c #00E676",
"@ c #FF9800",
"# c #FFC107",
"$ c #FFEB3B",
"% c #311B92",
"& c #9C27B0",
"* c gray62",
"= c white",
/* pixels */
"              &&                                &&              ",
"              &&&                              &&&              ",
"              &O&                             &&O&              ",
"              &OO&                           &&OO&              ",
"              &OO&&                         &&OOO&              ",
"              &OOO&&                       &&OOOO&              ",
"              &OOOO&&     &&&&&&&&&&&&    &&OOOOO&              ",
"              &OOOOO&&  &&&&&&&&&&&&&&&& &&OOOOOO&              ",
"              &OOOOOO&&&&&&&&&&&&&&&&&&&&&OOOOOOO&              ",
"              &OOOOOOO&&&&&&&&&&&&&&&&&&&OOOOOOOO&              ",
"              &&&&&&&&&&&&&&&&&&&&&&&&&&&&&&&&&&&&              ",
"             &&&&&&&&&&&&&&&&&&&&&&&&&&&&&&&&&&&&&&             ",
"             &&&&&&&&&&&&&&&&&&&&&&&&&&&&&&&&&&&&&&             ",
"             &&&&&&&&&&&&&&&&&&&&&&&&&&&&&&&&&&&&&&             ",
"            &&&&&&&&&&&&&&&&&&&&&&&&&&&&&&&&&&&&&&&&            ",
"            &&&&&&&&&&&&&&&&&&&&&&&&&&&&&&&&&&&&&&&&            ",
"           &&&&&&&&&&&&&&&&&&&&&&&&&&&&&&&&&&&&&&&&&&           ",
"           &&&&&&&&&.....&&&&&&&&&&&&&&&.....&&&&&&&&           ",
"          &&&&&&&&&.$$$$$...............$$$$$.&&&&&&&&          ",
"          &&&&&&&&&.$$$$$...............$$$$$.&&&&&&&&&         ",
"          .........$$$$$$$$.&&..&..&..$$$$$$$$.........         ",
"          .........$$$$$$$$.&&..&..&..$$$$$$$$.........         ",
"          &&&&&&&..@@@@@@@@...&&&&&...@@@@@@@@..&&&&&&&         ",
"          &&&&&&&..@@@@@@@@...&&&&&...@@@@@@@@..&&&&&&&         ",
"          &&&&&&&..@oo@@o@@.&&&&&&&&..@@o@@oo@..&&&&&&&         ",
"          &&&&&&&..@oo@@o@@.&&&&&&&&..@@o@@oo@..&&&&&&&         ",
"          &&&&&&&&&.ooooo..&&&&&&&&&&&..ooooo.&&&&&&&&&         ",
"          &&&&&&&&&.ooooo..&&&&&&&&&&&..ooooo.&&&&&&&&&         ",
"          &&&&&&&&&&.....&&&&&&&&&&&&&&&.....&&&&&&&&&&         ",
"          &&&&&&&&&&&&&&&&&&&&&&&&&&&&&&&&&&&&&&&&&&&&&         ",
"          &&&&&&&&&&&&&&&&&&&&&&&&&&&&&&&&&&&&&&&&&&&&&         ",
"          &&&&&&&&&&&&&&&&&&&&&&&&&&&&&&&&&&&&&&&&&&&&          ",
"           &&&&&&&&&&&&&&&&&&&&&&&&&&&&&&&&&&&&&&&&&&           ",
"            &&&&&&&&&&&&&&&&&&&&&&&&&&&&&&&&&&&&&&&&&           ",
"            &&&&&...............................&&&&&           ",
"             &&&&.============================..&&&&            ",
"             &&&&..==========================..&&&&&            ",
"              &&&&..OOOOOOOOOOOOOOOOOOOOOOOO..&&&&&             ",
"              &&&&&...OOOOOOOOOOOOOOOOOOOO...&&&&&&             ",
"               &&&&&&...OOOOOOOOOOOOOOOOO..&&&&&&&              ",
"                &&&&&&&...=============...&&&&&&&               ",
"                &&&&&&&&&&...========...&&&&&&&&&               ",
"                 &&&&&&&&&&&..........&&&&&&&&&&                ",
"                  &&&&&&&&&&&&&&&&&&&&&&&&&&&&&                 ",
"                    &&&&&&&&&&&&&&&&&&&&&&&&&                   ",
"                     &&&&&&&&&&&&&&&&&&&&&&&                    ",
"                     %**&&&&&&&&&&&&&&&&&**%                    ",
"                     %%***%&&&&&&&&&&&%***%%                    ",
"                     %%%%**%%&&&&&&&&%%**%%%                    ",
"                     %%%%%**%%%%%%%%%%%*%%%%                    ",
"                     %%%%%%*%%%%%%%%%%**%%%%                    ",
"                     %%%%%%**%%   %%%**%%%%%                    ",
"                     %%%%%%%*%%   %%**%%%%%%                    ",
"                     %%%%%%%**%   %**%%%%%%%                    ",
"                     %%%%%%%%#######%%%%%%%%                    ",
"                     %%%%%%%%#######%%%%%%%%                    ",
"                        &&&& ####### &&&&                       ",
"                        &&&& ####### &&&&                       ",
"                        &&&& ####### &&&&                       ",
"                        &&&& ####### &&&&                       ",
"                       X&&&&X       X&&&&X                      ",
"                       XXXXXX       XXXXXX                      ",
"                      ++++++++     ++++++++                     ",
"                      XXXXXXXX     XXXXXXXX                     "
};
