/* XPM */
static char *pixil_frame_0__2_1693793351[] = {
/* columns rows colors chars-per-pixel */
"64 64 13 1 ",
"  c None",
". c black",
"X c #1B5E20",
"o c #F44336",
"O c #E91E63",
"+ c #00E676",
"@ c #FF9800",
"# c #FFC107",
"$ c #FFEB3B",
"% c #311B92",
"& c #9C27B0",
"* c gray62",
"= c white",
/* pixels */
"              &&                                   &            ",
"              &&&                                 &&            ",
"              &O&&                               &&&            ",
"              &OO&&                             &&&&            ",
"              &OOO&&                            &O&&            ",
"              &OOOO&&                          &&O&&            ",
"              &OOOOO&&     &&&&&&&&&          &&OO&&            ",
"              &OOOOOO&& &&&&&&&&&&&&&&&     &&&OOO&&            ",
"              &OOOOOOO&&&&&&&&&&&&&&&&&&&  &&OOOOO&&            ",
"              &OOOOO&&&&&&&&&&&&&&&&&&&&&&&&OOOOOO&&            ",
"              &OOOO&&&&&&&&&&&&&&&&&&&&&&&&&OOOOOO&&            ",
"              &OO&&&&&&&&&&&&&&&&&&&&&&&&&&&&&OOOO&&            ",
"              &O&&&&&&&&&&&&&&&&&&&&&&&&&&&&&&&OOO&&            ",
"              &&&&&&&&&&&&&&&&&&&&&&&&&&&&&&&&&&OO&&            ",
"             &&&&&&&&&&&&&&&&&&&&&&&&&&&&&&&&&&&OO&&            ",
"             &&&&&&&&&&&&&&&&&&&&&&&&&&&&&&&&&&&&&&&            ",
"            &&.....&&&&&&&&&&&&&&&......&&&&&&&&&&&&            ",
"            &&.....&&&&&&&&&&&&&&&......&&&&&&&&&&&&            ",
"           &..$$$$$...............$$$$$$.&&&&&&&&&&&            ",
"           &..$$$$$...............$$$$$$.&&&&&&&&&&&            ",
"          ..$$$$$$$$$.&&..&&.&&..$$$$$$$$...........            ",
"          ..$$$$$$$$$.&&..&&.&&..$$$$$$$$...........            ",
"          ..@@@@@@@@@...&&&&&....@@@@@@@@..&&&&&&&..            ",
"          ..@@@@@@@@@...&&&&&....@@@@@@@@..&&&&&&&..&           ",
"          ..@@oo@oo@@.&&&&&&&&&..@oo@@oo@..&&&&&&&&&&           ",
"          ..@@oo@oo@@.&&&&&&&&&..@oo@@oo@..&&&&&&&&&&           ",
"          &&..ooooo..&&&&&&&&&&&&.oooooo.&&&&&&&&&&&&           ",
"          &&..ooooo..&&&&&&&&&&&&.oooooo.&&&&&&&&&&&&           ",
"          &&&&.....&&&&&&&&&&&&&&&......&&&&&&&&&&&&&           ",
"          &&&&.....&&&&&&&&&&&&&&&......&&&&&&&&&&&&&           ",
"          &&&&&&&&&&&&&&&&&&&&&&&&&&&&&&&&&&&&&&&&&&&           ",
"          &&&&&&&&&&&&&&&&&&&&&&&&&&&&&&&&&&&&&&&&&&&           ",
"           &&&&&&&&&&&&&&&&&&&&&&&&&&&&&&&&&&&&&&&&&            ",
"           &&&&&&&&&&&&&&&&&&&&&&&&&&&&&&&&&&&&&&&&&            ",
"           &&&&................................&&&&&            ",
"            &&&.=============================.&&&&&             ",
"            &&&&.===========================.&&&&&&             ",
"             &&&.=========================...&&&&&              ",
"             &&&............................&&&&&&              ",
"              &&&..OOOOOOOOOOOOOOOOOOOOO..&&&&&&&               ",
"               &&&..OOOOOOOOOOOOOOOOOOO..&&&&&&&                ",
"               &&&&.....................&&&&&&&&                ",
"                &&&&&..===========....&&&&&&&&&                 ",
"                 &&&&&...========..&&&&&&&&&&&                  ",
"                   &&&&&....==....&&&&&&&&&&                    ",
"                    &&&&&&&....&&&&&&&&&&&&                     ",
"                    %%&&&&&&&&&&&&&&&&&&&%%                     ",
"                    %%%**&&&&&&&&&&&&&&**%%                     ",
"                    %%%**%%&&&&&&&&&%%%*%%%                     ",
"                    %%%%*%%%%%%%%%%%%%**%%%                     ",
"                    %%%%**%%%%%%%%%%%**%%%%                     ",
"                    %%%%%**%%%   %%%**%%%%%                     ",
"                    %%%%%%**%%   %%**%%%%%%                     ",
"                    %%%%%%%**%   %**%%%%%%%                     ",
"                    %%%%%%%%#######%%%%%%%%                     ",
"                    %%%%%%%%#######%%%%%%%%                     ",
"                       &&&& ####### &&&&                        ",
"                       &&&& ####### &&&&                        ",
"                       &&&& ####### &&&&                        ",
"                       &&&& ####### &&&&                        ",
"                     +X&&&&X       X&&&&X+                      ",
"                  ++++XXXXXX       XXXXXX++++                   ",
"                 +++++++++++       +++++++++++                  ",
"                 XXXXXXXXXXX       XXXXXXXXXXX                  "
};
