/* XPM */
static char *pixil_frame_0__3_1693793351[] = {
/* columns rows colors chars-per-pixel */
"64 64 13 1 ",
"  c None",
". c black",
"X c #1B5E20",
"o c #F44336",
"O c #E91E63",
"+ c #00E676",
"@ c #FF9800",
"# c #FFC107",
"$ c #FFEB3B",
"% c #311B92",
"& c #9C27B0",
"* c gray62",
"= c white",
/* pixels */
"            &                                   &&              ",
"            &&                                 &&&              ",
"            &&&                               &&O&              ",
"            &&&&                             &&OO&              ",
"            &&O&                            &&OOO&              ",
"            &&O&&                          &&OOOO&              ",
"            &&OO&&          &&&&&&&&&     &&OOOOO&              ",
"            &&OOO&&&     &&&&&&&&&&&&&&& &&OOOOOO&              ",
"            &&OOOOO&&  &&&&&&&&&&&&&&&&&&&OOOOOOO&              ",
"            &&OOOOOO&&&&&&&&&&&&&&&&&&&&&&&&OOOOO&              ",
"            &&OOOOOO&&&&&&&&&&&&&&&&&&&&&&&&&OOOO&              ",
"            &&OOOO&&&&&&&&&&&&&&&&&&&&&&&&&&&&&OO&              ",
"            &&OOO&&&&&&&&&&&&&&&&&&&&&&&&&&&&&&&O&              ",
"            &&OO&&&&&&&&&&&&&&&&&&&&&&&&&&&&&&&&&&              ",
"            &&OO&&&&&&&&&&&&&&&&&&&&&&&&&&&&&&&&&&&             ",
"            &&&&&&&&&&&&&&&&&&&&&&&&&&&&&&&&&&&&&&&             ",
"            &&&&&&&&&&&&......&&&&&&&&&&&&&&&.....&&            ",
"            &&&&&&&&&&&&......&&&&&&&&&&&&&&&.....&&            ",
"            &&&&&&&&&&&.$$$$$$...............$$$$$..&           ",
"            &&&&&&&&&&&.$$$$$$...............$$$$$..&           ",
"            ...........$$$$$$$$..&&.&&..&&.$$$$$$$$$..          ",
"            ...........$$$$$$$$..&&.&&..&&.$$$$$$$$$..          ",
"            ..&&&&&&&..@@@@@@@@....&&&&&...@@@@@@@@@..          ",
"           &..&&&&&&&..@@@@@@@@....&&&&&...@@@@@@@@@..          ",
"           &&&&&&&&&&..@oo@@oo@..&&&&&&&&&.@@oo@oo@@..          ",
"           &&&&&&&&&&..@oo@@oo@..&&&&&&&&&.@@oo@oo@@..          ",
"           &&&&&&&&&&&&.oooooo.&&&&&&&&&&&&..ooooo..&&          ",
"           &&&&&&&&&&&&.oooooo.&&&&&&&&&&&&..ooooo..&&          ",
"           &&&&&&&&&&&&&......&&&&&&&&&&&&&&&.....&&&&          ",
"           &&&&&&&&&&&&&......&&&&&&&&&&&&&&&.....&&&&          ",
"           &&&&&&&&&&&&&&&&&&&&&&&&&&&&&&&&&&&&&&&&&&&          ",
"           &&&&&&&&&&&&&&&&&&&&&&&&&&&&&&&&&&&&&&&&&&&          ",
"            &&&&&&&&&&&&&&&&&&&&&&&&&&&&&&&&&&&&&&&&&           ",
"            &&&&&&&&&&&&&&&&&&&&&&&&&&&&&&&&&&&&&&&&&           ",
"            &&&&&................................&&&&           ",
"             &&&&&.=============================.&&&            ",
"             &&&&&&.===========================.&&&&            ",
"              &&&&&...=========================.&&&             ",
"              &&&&&&............................&&&             ",
"               &&&&&&&..OOOOOOOOOOOOOOOOOOOOO..&&&              ",
"                &&&&&&&..OOOOOOOOOOOOOOOOOOO..&&&               ",
"                &&&&&&&&.....................&&&&               ",
"                 &&&&&&&&&....===========..&&&&&                ",
"                  &&&&&&&&&&&..========...&&&&&                 ",
"                    &&&&&&&&&&....==....&&&&&                   ",
"                     &&&&&&&&&&&&....&&&&&&&                    ",
"                     %%&&&&&&&&&&&&&&&&&&&%%                    ",
"                     %%**&&&&&&&&&&&&&&**%%%                    ",
"                     %%%*%%%&&&&&&&&&%%**%%%                    ",
"                     %%%**%%%%%%%%%%%%%*%%%%                    ",
"                     %%%%**%%%%%%%%%%%**%%%%                    ",
"                     %%%%%**%%%   %%%**%%%%%                    ",
"                     %%%%%%**%%   %%**%%%%%%                    ",
"                     %%%%%%%**%   %**%%%%%%%                    ",
"                     %%%%%%%%#######%%%%%%%%                    ",
"                     %%%%%%%%#######%%%%%%%%                    ",
"                        &&&& ####### &&&&                       ",
"                        &&&& ####### &&&&                       ",
"                        &&&& ####### &&&&                       ",
"                        &&&& ####### &&&&                       ",
"                      +X&&&&X       X&&&&X+                     ",
"                   ++++XXXXXX       XXXXXX++++                  ",
"                  +++++++++++       +++++++++++                 ",
"                  XXXXXXXXXXX       XXXXXXXXXXX                 "
};
