/* XPM */
static char *pixil_frame_0__4_1693793351[] = {
/* columns rows colors chars-per-pixel */
"64 64 8 1 ",
"  c None",
". c #1B5E20",
"X c #00E676",
"o c #FFC107",
"O c #311B92",
"+ c #9C27B0",
"@ c #2196F3",
"# c gray62",
/* pixels */
"            +                                   ++              ",
"            ++                                 +++              ",
"            +++                               ++++              ",
"            ++++                             +++++              ",
"            ++++                            ++++++              ",
"            +++++                          +++++++              ",
"            ++++++          +++++++++     ++++++++              ",
"            ++++++++     +++++++++++++++ +++++++++              ",
"            +++++++++  +++++++++++++++++++++++++++              ",
"            ++++++++++++++++++++++++++++++++++++++              ",
"            ++++++++++++++++++++++++++++++++++++++              ",
"            ++++++++++++++++++++++++++++++++++++++              ",
"            ++++++++++++++++++++++++++++++++++++++              ",
"            ++++++++++++++++++++++++++++++++++++++              ",
"            +++++++++++++++++++++++++++++++++++++++             ",
"            +++++++++++++++++++++++++++++++++++++++             ",
"            ++++++++++++++++++++++++++++++++++++++++            ",
"            ++++++++++++++++++++++++++++++++++++++++            ",
"            +++++++++++++++++++++++++++++++++++++++++           ",
"            +++++++++++++++++++++++++++++++++++++++++           ",
"            +++++++++++++++++++++++++++++++++++++++++           ",
"            +++++++++++++++++++++++++++++++++++++++++           ",
"            ++++++++++++++++++++++++++++++++++++++++++          ",
"           +++++++++++++++++++++++++++++++++++++++++++          ",
"           +++++++++++++++++++++++++++++++++++++++++++          ",
"           +++++++++++++++++++++++++++++++++++++++++++          ",
"           +++++++++++++++++++++++++++++++++++++++++++          ",
"           +++++++++++++++++++++++++++++++++++++++++++          ",
"           +++++++++++++++++++++++++++++++++++++++++++          ",
"           +++++++++++++++++++++++++++++++++++++++++++          ",
"           +++++++++++++++++++++++++++++++++++++++++++          ",
"           +++++++++++++++++++++++++++++++++++++++++++          ",
"            +++++++++++++++++++++++++++++++++++++++++           ",
"            +++++++++++++++++++++++++++++++++++++++++           ",
"            +++++++++++++++++++++++++++++++++++++++++           ",
"             +++++++++++++++++++++++++++++++++++++++            ",
"             +++++++++++++++++++++++++++++++++++++++            ",
"              +++++++++++++++++++++++++++++++++++++             ",
"              +++++++++++++++++++++++++++++++++++++             ",
"               +++++++++++++++++++++++++++++++++++              ",
"                +++++++++++++++++++++++++++++++++               ",
"                +++++++++++++++++++++++++++++++++               ",
"                 +++++++++++++++++++++++++++++++                ",
"                  +++++++++++++++++++++++++++++                 ",
"                    +++++++++++++++++++++++++                   ",
"                     +++++++++++++++++++++++                    ",
"                     O##+++++++++++++++++##O                    ",
"                     OO###################OO                    ",
"                     OOOO###############OOOO                    ",
"                     OOOOOOOOOOOOOOOOOOOOOOO                    ",
"                     OOO@@@@OOOOOOOOO@@@@@OO                    ",
"                     OOOOOOOOOO   OOOOOOOOOO                    ",
"                     OOOOOOOOOO   OOOOOOOOOO                    ",
"                     OOOOOOOOOO   OOOOOOOOOO                    ",
"                     OOOOOOOOOOoooOOOOOOOOOO                    ",
"                     OOOOOOOOOOoooOOOOOOOOOO                    ",
"                        ++++ ooooooo ++++                       ",
"                        ++++ ooooooo ++++                       ",
"                        ++++ ooooooo ++++                       ",
"                        ++++ ooooooo ++++                       ",
"                      X.++++.       .++++.X                     ",
"                   XXXX......       ......XXXX                  ",
"                  XXXXXXXXXXX       XXXXXXXXXXX                 ",
"                  ...........       ...........                 "
};
