/* XPM */
static char *be587b7d42574b0ec8706dda9655bf44mCstQbhpud2sahS6[] = {
/* columns rows colors chars-per-pixel */
"64 64 3 1 ",
"  c #B71C1C",
". c #D32F2F",
"X c #EF5350",
/* pixels */
"    XXXXXXXXXXXXXXXXXXXXXXXXXXXXXXXXXXXXXXXXXXXXXXXXXXXXXXXX    ",
"    XXXXXXXXXXXXXXXXXXXXXXXXXXXXXXXXXXXXXXXXXXXXXXXXXXXXXXXX    ",
"    XXXXXXXXXXXXXXXXXXXXXXXXXXXXXXXXXXXXXXXXXXXXXXXXXXXXXXXX    ",
"    XXXXXXXXXXXXXXXXXXXXXXXXXXXXXXXXXXXXXXXXXXXXXXXXXXXXXXXX    ",
"XXXX........................................................XXXX",
"XXXX........................................................XXXX",
"XXXX........................................................XXXX",
"XXXX........................................................XXXX",
"XXXX....    ........................................    ....XXXX",
"XXXX....    ........................................    ....XXXX",
"XXXX....    ........................................    ....XXXX",
"XXXX....    ........................................    ....XXXX",
"XXXX........................................................XXXX",
"XXXX........................................................XXXX",
"XXXX........................................................XXXX",
"XXXX........................................................XXXX",
"XXXX........................................................XXXX",
"XXXX........................................................XXXX",
"XXXX........................................................XXXX",
"XXXX........................................................XXXX",
"XXXX........................................................XXXX",
"XXXX........................................................XXXX",
"XXXX........................................................XXXX",
"XXXX........................................................XXXX",
"XXXX........................................................XXXX",
"XXXX........................................................XXXX",
"XXXX........................................................XXXX",
"XXXX........................................................XXXX",
"XXXX........................................................XXXX",
"XXXX........................................................XXXX",
"XXXX........................................................XXXX",
"XXXX........................................................XXXX",
"XXXX........................................................XXXX",
"XXXX........................................................XXXX",
"XXXX........................................................XXXX",
"XXXX........................................................XXXX",
"XXXX........................................................XXXX",
"XXXX........................................................XXXX",
"XXXX........................................................XXXX",
"XXXX........................................................XXXX",
"XXXX........................................................XXXX",
"XXXX........................................................XXXX",
"XXXX........................................................XXXX",
"XXXX........................................................XXXX",
"XXXX........................................................XXXX",
"XXXX........................................................XXXX",
"XXXX........................................................XXXX",
"XXXX........................................................XXXX",
"XXXX........................................................XXXX",
"XXXX........................................................XXXX",
"XXXX........................................................XXXX",
"XXXX........................................................XXXX",
"XXXX....    ........................................    ....XXXX",
"XXXX....    ........................................    ....XXXX",
"XXXX....    ........................................    ....XXXX",
"XXXX....    ........................................    ....XXXX",
"XXXX........................................................XXXX",
"XXXX........................................................XXXX",
"XXXX........................................................XXXX",
"XXXX........................................................XXXX",
"    XXXXXXXXXXXXXXXXXXXXXXXXXXXXXXXXXXXXXXXXXXXXXXXXXXXXXXXX    ",
"    XXXXXXXXXXXXXXXXXXXXXXXXXXXXXXXXXXXXXXXXXXXXXXXXXXXXXXXX    ",
"    XXXXXXXXXXXXXXXXXXXXXXXXXXXXXXXXXXXXXXXXXXXXXXXXXXXXXXXX    ",
"    XXXXXXXXXXXXXXXXXXXXXXXXXXXXXXXXXXXXXXXXXXXXXXXXXXXXXXXX    "
};
